# xmcd
#
# Track frame offsets:
#	150
#	16350
#	34800
#	53625
#	71625
#	90225
#	108451
#	122927
#	141078
#	158403
#	174303
#	193803
#	212478
#
# Disc length: 3038 seconds
#
# Revision: 2
# Processed by: cddbd v1.5.2PL0 Copyright (c) Steve Scherf et al.
# Submitted via: audiograbber 1.83.01
#
DISCID=a90bdc0d
DTITLE=Superstar Karaoke - SKG928 Garth Brooks
DYEAR=2000
DGENRE=Karaoke
TTITLE0=Garth Brooks - Friends In Low Places
TTITLE1=Garth Brooks - The Dance
TTITLE2=Garth Brooks - Shameless
TTITLE3=Garth Brooks - Standing Outside The Fire
TTITLE4=Garth Brooks - The Beaches Of Cheyenne
TTITLE5=Garth Brooks - You Move Me
TTITLE6=Garth Brooks - Hard Luck Woman
TTITLE7=Garth Brooks - To Make You Feel My Love
TTITLE8=Garth Brooks - Two Pina Coladas
TTITLE9=Garth Brooks - What She's Doing Now
TTITLE10=Garth Brooks - We Shall Be Free
TTITLE11=Garth Brooks - The River
TTITLE12=Garth Brooks - The Thunder Rolls
EXTD=Karaoke Disc with On Screen lyrics
EXTT0=
EXTT1=
EXTT2=
EXTT3=
EXTT4=
EXTT5=
EXTT6=
EXTT7=
EXTT8=
EXTT9=
EXTT10=
EXTT11=
EXTT12=
PLAYORDER=
